<?xml version="1.0" encoding="utf-8"?>
<!-- Generator: Adobe Illustrator 24.1.1, SVG Export Plug-In . SVG Version: 6.00 Build 0)  -->
<svg version="1.1" id="Capa_1" xmlns="http://www.w3.org/2000/svg" xmlns:xlink="http://www.w3.org/1999/xlink" x="0px" y="0px"
	 viewBox="0 0 841.89 595.28" style="enable-background:new 0 0 841.89 595.28;" xml:space="preserve">
<style type="text/css">
	.st0{fill:#C82C28;}
	.st1{fill:#FAFAFA;}
</style>
<g>
	<g>
		<path class="st1" d="M306.5,349.88c-1.31,3.13-2.55,6.13-3.81,9.11c-9.01,21.43-18.04,42.86-27.02,64.3
			c-0.43,1.02-0.92,1.34-2.01,1.32c-4.14-0.07-8.29-0.05-12.44-0.01c-0.8,0.01-1.16-0.25-1.46-0.98
			c-2.39-5.79-4.83-11.55-7.25-17.33c-0.16-0.38-0.33-0.75-0.59-1.35c-1.47,3.51-2.84,6.8-4.21,10.09
			c-1.22,2.93-2.47,5.84-3.66,8.78c-0.27,0.66-0.55,0.98-1.34,0.97c-4.31-0.04-8.63-0.04-12.94,0c-0.76,0.01-1.1-0.26-1.38-0.94
			c-10.2-24.33-20.43-48.64-30.65-72.97c-0.11-0.26-0.18-0.53-0.31-0.94c2.03,0,3.94,0,5.86,0c3.27,0,6.53,0.04,9.8-0.03
			c0.96-0.02,1.38,0.3,1.72,1.17c6.94,17.77,13.9,35.52,20.87,53.28c0.13,0.34,0.29,0.68,0.52,1.22c0.21-0.42,0.36-0.68,0.47-0.95
			c2.34-5.94,4.68-11.88,6.97-17.84c0.19-0.5,0.12-1.23-0.09-1.74c-4.65-11.18-9.34-22.34-14.02-33.5c-0.21-0.5-0.41-1-0.67-1.65
			c0.43-0.04,0.78-0.1,1.13-0.1c4.9-0.01,9.8,0.02,14.7-0.03c0.89-0.01,1.23,0.35,1.52,1.1c1.86,4.83,3.75,9.64,5.71,14.66
			c0.24-0.53,0.42-0.89,0.57-1.27c1.76-4.47,3.5-8.94,5.29-13.39c0.15-0.37,0.6-0.89,0.92-0.9c5.4-0.06,10.8-0.04,16.34-0.04
			c-0.17,0.48-0.29,0.87-0.45,1.24c-4.72,11.19-9.43,22.39-14.18,33.57c-0.37,0.88-0.38,1.61-0.03,2.49
			c2.26,5.61,4.46,11.25,6.69,16.88c0.16,0.42,0.34,0.83,0.6,1.45c2.11-5.38,4.15-10.53,6.17-15.68
			c5.09-12.98,10.19-25.95,15.25-38.94c0.35-0.91,0.79-1.17,1.72-1.17c4.77,0.05,9.55,0.02,14.32,0.02
			C305.53,349.81,305.94,349.85,306.5,349.88z"/>
		<path class="st1" d="M566.43,349.81c0.41,0,0.82,0,1.23,0c6.41,0,12.81,0.02,19.22-0.02c0.89-0.01,1.33,0.3,1.72,1.06
			c5.3,10.19,10.62,20.37,15.94,30.55c0.21,0.4,0.43,0.79,0.76,1.38c0.31-0.57,0.54-0.99,0.75-1.41c5.19-10.1,10.4-20.2,15.56-30.32
			c0.49-0.97,1.05-1.27,2.11-1.26c6.41,0.05,12.81,0.03,19.22,0.03c0.49,0,0.98,0,1.51,0c0,24.98,0,49.79,0,74.69
			c-5.25,0-10.46,0-15.86,0c0-17.78,0-35.57,0-53.35c-0.1-0.02-0.2-0.04-0.3-0.06c-0.21,0.39-0.43,0.77-0.63,1.16
			c-5.48,10.8-10.97,21.59-16.42,32.4c-0.41,0.82-0.85,1.15-1.79,1.13c-2.72-0.07-5.44-0.07-8.16,0c-0.93,0.02-1.38-0.29-1.8-1.12
			c-5.48-10.75-11-21.49-16.51-32.22c-0.14-0.28-0.32-0.54-0.7-0.77c0,17.58,0,35.17,0,52.84c-5.35,0-10.56,0-15.85,0
			C566.43,399.66,566.43,374.82,566.43,349.81z"/>
		<path class="st1" d="M483.85,387.02c-0.13-21.06,17.13-38.46,38.27-38.57c21.67-0.12,39.16,17.21,39.13,38.98
			c-0.03,20.83-17.12,38.37-38.76,38.42C501.1,425.91,483.67,408.48,483.85,387.02z M499.67,387.09
			c-0.19,12.71,10.87,23.7,24.09,22.9c11.4-0.69,21.41-10.2,21.33-22.88c-0.08-13.09-10.63-23.34-23.57-22.8
			C508.22,364.88,499.42,376.3,499.67,387.09z"/>
		<path class="st1" d="M405.99,424.59c-6.71,0-13.07,0.02-19.43-0.04c-0.47,0-1.07-0.55-1.39-1c-5.83-8.27-11.63-16.56-17.4-24.87
			c-0.51-0.74-1.03-1.05-1.93-1.02c-2.21,0.07-4.43,0.02-6.79,0.02c0,8.95,0,17.83,0,26.82c-5.38,0-10.63,0-15.94,0
			c0-24.92,0-49.8,0-74.8c0.49,0,0.9,0,1.31,0c10.55,0,21.1,0,31.66,0c4.52,0,8.91,0.61,13.08,2.47
			c6.49,2.88,10.51,7.85,12.19,14.68c1.67,6.78,1.13,13.36-2.33,19.55c-2.84,5.08-7.2,8.25-12.69,9.97
			c-0.28,0.09-0.56,0.16-0.84,0.25c-0.11,0.04-0.22,0.11-0.44,0.22C391.98,406.02,398.89,415.18,405.99,424.59z M359.07,362.38
			c0,7.71,0,15.14,0,22.63c0.26,0.03,0.47,0.07,0.67,0.06c4.14-0.01,8.29,0.06,12.43-0.06c2.12-0.06,4.27-0.28,6.34-0.73
			c4.68-1.03,7.15-3.96,7.51-9.23c0.51-7.46-2.31-11.52-9.41-12.2C370.83,362.31,364.99,362.51,359.07,362.38z"/>
		<path class="st1" d="M480.88,368.24c-4.71,2.42-9.42,4.84-14.2,7.3c-4.74-7.27-11.27-11.25-20.01-11.08
			c-6.64,0.13-12.15,2.85-16.53,7.78c-8.39,9.46-7.01,24.65,2.61,32.43c10.68,8.63,27.51,6.27,34.5-6.69
			c4.69,2.43,9.39,4.87,14.08,7.3c-5.61,11.83-20,21.94-37.45,20.45c-18.86-1.61-33.14-16.55-35.13-34.3
			c-2.19-19.6,10.65-36.47,27.45-41.42C454.57,344.59,472.55,353.15,480.88,368.24z"/>
		<path class="st1" d="M330.34,424.54c-5.24,0-10.42,0-15.7,0c0-24.84,0-49.68,0-74.62c5.18,0,10.38,0,15.7,0
			C330.34,374.74,330.34,399.57,330.34,424.54z"/>
	</g>
	<g>
		<path class="st1" d="M278.59,328.33c3.4-8.14,6.63-15.92,9.9-23.68c23.42-55.7,46.88-111.39,70.21-167.12
			c1.11-2.65,2.4-3.49,5.22-3.44c10.77,0.18,21.55,0.13,32.32,0.02c2.07-0.02,3.02,0.65,3.8,2.55
			c6.21,15.04,12.54,30.03,18.84,45.03c0.41,0.97,0.85,1.94,1.54,3.5c3.81-9.12,7.38-17.67,10.95-26.21
			c3.18-7.61,6.42-15.19,9.52-22.83c0.7-1.72,1.44-2.55,3.48-2.53c11.21,0.11,22.42,0.1,33.63,0.01c1.97-0.02,2.85,0.69,3.59,2.44
			c26.52,63.22,53.09,126.42,79.65,189.63c0.28,0.67,0.47,1.38,0.82,2.44c-5.28,0-10.25,0-15.22,0c-8.49,0-16.98-0.11-25.47,0.07
			c-2.49,0.05-3.58-0.78-4.46-3.04c-18.03-46.17-36.13-92.31-54.23-138.46c-0.35-0.89-0.75-1.76-1.35-3.17
			c-0.54,1.09-0.93,1.76-1.21,2.48c-6.07,15.44-12.17,30.88-18.11,46.37c-0.5,1.3-0.31,3.18,0.24,4.51
			c12.09,29.05,24.27,58.05,36.43,87.06c0.54,1.3,1.06,2.6,1.73,4.28c-1.11,0.1-2.03,0.25-2.94,0.25
			c-12.73,0.02-25.47-0.06-38.2,0.07c-2.32,0.02-3.21-0.91-3.96-2.86c-4.83-12.55-9.75-25.06-14.84-38.11
			c-0.63,1.39-1.1,2.32-1.48,3.3c-4.57,11.61-9.09,23.23-13.74,34.81c-0.39,0.97-1.57,2.32-2.39,2.33
			c-14.03,0.14-28.06,0.1-42.46,0.1c0.45-1.25,0.75-2.25,1.16-3.22c12.26-29.09,24.5-58.19,36.84-87.24
			c0.97-2.29,0.99-4.19,0.07-6.48c-5.87-14.59-11.6-29.24-17.38-43.87c-0.43-1.08-0.89-2.15-1.56-3.76
			c-5.5,13.97-10.77,27.36-16.03,40.76c-13.23,33.72-26.49,67.44-39.63,101.2c-0.92,2.36-2.05,3.05-4.48,3.03
			c-12.41-0.12-24.81-0.05-37.22-0.06C281.12,328.51,280.07,328.41,278.59,328.33z"/>
		<rect x="518.14" y="309.42" class="st1" width="214.71" height="19.16"/>
		<rect x="109.04" y="309.42" class="st1" width="214.71" height="19.16"/>
	</g>
	<g>
		<path class="st1" d="M351.87,443.29l-6.77,18.04h-4.46l-3.79-11.75l-4.25,11.75h-4.51l-6-18.04h4.64l3.74,11.7l4.11-11.7h4.75
			l3.66,11.65l4.19-11.65H351.87z"/>
		<path class="st1" d="M361.39,461.33h-4.35v-18.04h4.35V461.33z"/>
		<path class="st1" d="M382.75,450.05c0,2.6-1.27,4.8-3.21,5.84l3.71,5.44h-5.41l-2.71-4.48h-3.18v4.48h-4.35v-18.04h8.73
			C379.99,443.29,382.75,446.13,382.75,450.05z M371.95,447.32v5.49h3.74c1.49,0,2.68-1.25,2.68-2.76c0-1.49-1.19-2.73-2.65-2.73
			H371.95z"/>
		<path class="st1" d="M405.32,456.95c-1.62,2.71-4.62,4.7-8.44,4.7c-5.65,0-9.76-4.14-9.76-9.47c0-5.02,4.11-9.21,9.76-9.21
			c3.85,0,6.87,1.8,8.49,4.51l-3.69,2.15c-0.85-1.64-2.52-2.73-4.8-2.73c-3.16,0-5.36,2.31-5.36,5.28c0,2.87,2.2,5.39,5.36,5.39
			c2.23,0,3.87-1.14,4.75-2.73L405.32,456.95z"/>
		<path class="st1" d="M427.34,452.31c0,5.15-4.19,9.34-9.31,9.34c-5.17,0-9.31-4.19-9.31-9.34c0-5.12,4.14-9.34,9.31-9.34
			C423.15,442.97,427.34,447.19,427.34,452.31z M412.7,452.31c0,2.95,2.39,5.31,5.33,5.31c2.89,0,5.28-2.36,5.28-5.31
			c0-2.92-2.39-5.28-5.28-5.28C415.08,447.03,412.7,449.39,412.7,452.31z"/>
		<path class="st1" d="M454.62,461.33h-4.38v-9.21l-4.33,9.21h-4.86l-4.33-9.21v9.21h-4.35v-18.04h4.83l6.29,13.24l6.26-13.24h4.86
			V461.33z"/>
		<path class="st1" d="M483.24,448.99h-4.33c0-0.9-1.06-2.12-2.92-2.12c-1.3,0-2.89,0.58-2.89,1.62c0,0.88,1.19,1.22,3.74,1.88
			c2.84,0.74,6.85,1.7,6.85,5.68c0,3.45-3.03,5.6-7.24,5.6c-5.65,0-8.01-3.82-8.01-6.63h4.33c0,0,0.34,2.87,3.93,2.87
			c1.94,0,2.65-0.82,2.65-1.59c0-1.14-1.51-1.54-3.18-1.94c-2.71-0.64-7.46-1.65-7.46-5.65c0-3.29,3.24-5.73,7.35-5.73
			C480.75,442.97,483.24,446.18,483.24,448.99z"/>
		<path class="st1" d="M493.24,459.1c0,1.38-1.19,2.55-2.65,2.55c-1.38,0-2.55-1.17-2.55-2.55c0-1.46,1.17-2.65,2.55-2.65
			C492.04,456.45,493.24,457.64,493.24,459.1z"/>
		<path class="st1" d="M511.89,458.52h-8.7l-1.19,2.81h-4.62l7.72-18.04h4.86l7.75,18.04h-4.64L511.89,458.52z M510.38,454.96
			l-2.81-6.74l-2.87,6.74H510.38z"/>
	</g>
</g>
</svg>
